<svg xmlns="http://www.w3.org/2000/svg" width="85" height="86"><path fill-rule="evenodd" fill="#FFF" d="M42.5 85.356C19.071 85.356.012 66.294.012 42.863S19.071.369 42.5.369s42.488 19.063 42.488 42.494S65.929 85.356 42.5 85.356zm0-80.738c-21.085 0-38.239 17.157-38.239 38.245 0 21.086 17.154 38.243 38.239 38.243 21.084 0 38.239-17.157 38.239-38.243 0-21.088-17.155-38.245-38.239-38.245zm19.111 40.088L31.87 61.705a2.129 2.129 0 01-2.121-.008 2.126 2.126 0 01-1.058-1.837V25.865a2.124 2.124 0 013.179-1.845l29.741 16.998a2.123 2.123 0 010 3.688zM32.94 29.526v26.671l23.335-13.334L32.94 29.526z"/></svg>