<svg xmlns="http://www.w3.org/2000/svg" width="23" height="23"><path id="Forma_1" data-name="Forma 1" d="M1289.23 6268.85a1.6 1.6 0 001.62-1.59v-1.66a1.62 1.62 0 00-3.24 0v1.66a1.594 1.594 0 001.62 1.59zm5.75-2.09h-3.26v.81a2.465 2.465 0 01-4.93 0v-.81h-6.58v.81a2.465 2.465 0 01-4.93 0v-.81l-3.29-.04V6287h21.37l1.65-.01zm-1.62 18.62h-19.72v-12.95h19.72v12.95zm-15.64-16.53a1.594 1.594 0 001.62-1.59v-1.66a1.62 1.62 0 00-3.24 0v1.66a1.6 1.6 0 001.62 1.59zm2.5 5.32h2.59v2.25h-2.59v-2.25zm4.19 0h2.59v2.25h-2.59v-2.25zm3.88 0h2.59v2.25h-2.59v-2.25zm-8.07 3.74h2.59v2.25h-2.59v-2.25zm4.19 0h2.59v2.25h-2.59v-2.25zm3.88 0h2.59v2.25h-2.59v-2.25zm-8.07 3.81h2.59v2.25h-2.59v-2.25zm-4.12-3.81h2.59v2.25h-2.59v-2.25zm0 3.81h2.59v2.25h-2.59v-2.25zm8.31 0h2.59v2.25h-2.59v-2.25zm3.88 0h2.59v2.25h-2.59v-2.25z" transform="translate(-1272 -6264)" fill="#fff" fill-rule="evenodd"/></svg>