<svg xmlns="http://www.w3.org/2000/svg" width="18" height="13"><defs><filter id="filter" x="1058" y="6811" width="18" height="13" filterUnits="userSpaceOnUse"><feFlood result="flood" flood-color="#fff"/><feComposite result="composite" operator="in" in2="SourceGraphic"/><feBlend result="blend" in2="SourceGraphic"/></filter></defs><path id="Forma_1" data-name="Forma 1" d="M1067.03 6818.8a.713.713 0 00.38-.12l.03-.02.02-.02.34-.3 8.19-7.3a.123.123 0 00-.08-.04h-17.81a.142.142 0 00-.06.02l8.56 7.62a.652.652 0 00.43.16zm-9.03-6.77v10.81l6.14-5.35zm11.88 5.5l6.12 5.32v-10.78zm-1.95 1.74a1.392 1.392 0 01-1.8 0l-1.4-1.25-6.73 5.86v.02a.108.108 0 00.1.1h17.81a.1.1 0 00.09-.1v-.02l-6.71-5.83z" transform="translate(-1058 -6811)" fill-rule="evenodd" filter="url(#filter)"/></svg>