<svg xmlns="http://www.w3.org/2000/svg" width="18" height="14"><defs><filter id="filter" x="987" y="6810" width="18" height="14" filterUnits="userSpaceOnUse"><feFlood result="flood" flood-color="#fff"/><feComposite result="composite" operator="in" in2="SourceGraphic"/><feBlend result="blend" in2="SourceGraphic"/></filter></defs><path id="Forma_1" data-name="Forma 1" d="M1005.01 6811.66a7.283 7.283 0 01-2.13.55 3.453 3.453 0 001.62-1.95 7.49 7.49 0 01-2.34.86 3.611 3.611 0 00-2.694-1.12 3.673 3.673 0 00-2.61 1.03 3.347 3.347 0 00-1.08 2.5 3.666 3.666 0 00.092.81 10.69 10.69 0 01-7.608-3.69 3.4 3.4 0 00-.058 3.46 3.569 3.569 0 001.2 1.26 3.724 3.724 0 01-1.668-.45v.05a3.3 3.3 0 00.84 2.24 3.647 3.647 0 002.119 1.22 3.991 3.991 0 01-.971.12 5.962 5.962 0 01-.7-.05 3.459 3.459 0 001.3 1.74 3.714 3.714 0 002.148.71 7.469 7.469 0 01-4.581 1.51 7.955 7.955 0 01-.891-.05 10.561 10.561 0 005.666 1.59 11.154 11.154 0 003.69-.6 9.7 9.7 0 002.947-1.59 10.894 10.894 0 002.1-2.31 9.994 9.994 0 001.32-2.71 9.659 9.659 0 00.44-2.84c0-.21-.01-.36-.01-.46a7.48 7.48 0 001.859-1.83z" transform="translate(-987 -6810)" fill="#fff" fill-rule="evenodd" filter="url(#filter)"/></svg>