<svg 
 xmlns="http://www.w3.org/2000/svg"
 xmlns:xlink="http://www.w3.org/1999/xlink"
 width="85px" height="86px">
<path fill-rule="evenodd"  fill="rgb(255, 255, 255)"
 d="M42.500,85.356 C19.071,85.356 0.012,66.294 0.012,42.863 C0.012,19.432 19.071,0.369 42.500,0.369 C65.929,0.369 84.988,19.432 84.988,42.863 C84.988,66.294 65.929,85.356 42.500,85.356 ZM42.500,4.618 C21.415,4.618 4.261,21.775 4.261,42.863 C4.261,63.949 21.415,81.106 42.500,81.106 C63.584,81.106 80.739,63.949 80.739,42.863 C80.739,21.775 63.584,4.618 42.500,4.618 ZM61.611,44.706 L31.870,61.705 C31.544,61.891 31.179,61.984 30.816,61.984 C30.446,61.984 30.079,61.889 29.749,61.697 C29.094,61.316 28.691,60.616 28.691,59.860 L28.691,25.865 C28.691,25.107 29.094,24.407 29.749,24.027 C30.405,23.646 31.214,23.643 31.870,24.020 L61.611,41.018 C62.273,41.395 62.682,42.100 62.682,42.863 C62.682,43.624 62.273,44.329 61.611,44.706 ZM32.940,29.526 L32.940,56.197 L56.275,42.863 L32.940,29.526 Z"/>
</svg>